<svg width="168" height="33" viewBox="0 0 168 33" fill="none" xmlns="http://www.w3.org/2000/svg">
<path opacity="0.1" fill-rule="evenodd" clip-rule="evenodd" d="M136.999 1.99987H166.999V31.9998H136.999V1.99987Z" fill="white"/>
<path d="M155.42 20.2634C154.688 20.2634 154.091 19.6724 154.091 18.9473C154.091 18.2224 154.688 17.6312 155.42 17.6312C156.152 17.6312 156.749 18.2224 156.749 18.9473C156.749 19.6724 156.152 20.2634 155.42 20.2634ZM155.655 22.4233C154.747 23.32 153.009 23.3908 152.499 23.3908C151.988 23.3908 150.248 23.32 149.343 22.4233C149.207 22.2895 149.207 22.0747 149.343 21.9408C149.478 21.8069 149.695 21.8069 149.83 21.9408C150.401 22.5067 151.624 22.7088 152.499 22.7088C153.371 22.7088 154.596 22.5067 155.168 21.9408C155.303 21.8069 155.52 21.8069 155.655 21.9408C155.788 22.0747 155.788 22.2895 155.655 22.4233ZM148.243 18.9474C148.243 18.2225 148.84 17.6313 149.572 17.6313C150.305 17.6313 150.902 18.2225 150.902 18.9474C150.902 19.6724 150.305 20.2636 149.572 20.2636C148.84 20.2634 148.243 19.6724 148.243 18.9474ZM161 17.6313C161 16.6133 160.168 15.7898 159.14 15.7898C158.637 15.7898 158.183 15.9867 157.849 16.3077C156.578 15.3983 154.826 14.8122 152.874 14.744L153.721 10.7956L156.489 11.3793C156.522 12.0765 157.099 12.6323 157.811 12.6323C158.546 12.6323 159.14 12.0436 159.14 11.3161C159.14 10.5886 158.546 10 157.811 10C157.288 10 156.841 10.3006 156.624 10.735L153.532 10.0833C153.445 10.0656 153.356 10.081 153.282 10.1288C153.208 10.1768 153.157 10.25 153.139 10.3359C153.139 10.3359 152.21 14.7163 152.21 14.7415C150.223 14.792 148.437 15.3806 147.146 16.3026C146.812 15.9844 146.36 15.7898 145.86 15.7898C144.832 15.7898 144 16.6158 144 17.6313C144 18.379 144.452 19.0232 145.1 19.3111C145.072 19.4931 145.056 19.6799 145.056 19.8694C145.056 22.7037 148.388 25 152.499 25C156.609 25 159.941 22.7037 159.941 19.8694C159.941 19.6825 159.926 19.4981 159.898 19.3162C160.543 19.0283 161 18.3841 161 17.6313Z" fill="white"/>
<path opacity="0.1" fill-rule="evenodd" clip-rule="evenodd" d="M92 2H122V31.9999H92V2Z" fill="white"/>
<path d="M105.182 20.2928L109.873 17.5005L105.182 14.7082V20.2928ZM115.62 13.0067C115.733 13.4433 115.817 14.0315 115.873 14.7733C115.93 15.5151 115.959 16.162 115.959 16.7149L116 17.5005C116 19.537 115.874 21.0346 115.62 21.9942C115.394 22.8375 114.873 23.3764 114.056 23.6091C113.634 23.7254 112.838 23.812 111.669 23.8697C110.593 23.9258 109.515 23.9553 108.437 23.9581L107 24C103.224 24 100.872 23.8697 99.9427 23.6072C99.126 23.3745 98.6049 22.8365 98.3795 21.9933C98.2659 21.5567 98.1812 20.9685 98.1253 20.2267C98.0729 19.5808 98.0447 18.9332 98.0406 18.2851L98 17.5005C98 15.464 98.1262 13.9663 98.3795 13.0067C98.6049 12.1635 99.1269 11.6255 99.9436 11.3928C100.366 11.2764 101.162 11.188 102.331 11.1303C103.407 11.0748 104.485 11.0459 105.563 11.0437L107 11C110.775 11 113.127 11.1303 114.056 11.3919C114.873 11.6245 115.395 12.1635 115.62 13.0067Z" fill="white"/>
<path opacity="0.1" fill-rule="evenodd" clip-rule="evenodd" d="M46.9993 1.99987H76.9996V31.9998H46.9993V1.99987Z" fill="white"/>
<path d="M70 12.539C69.405 12.8 68.771 12.973 68.11 13.057C68.79 12.651 69.309 12.013 69.553 11.244C68.919 11.622 68.219 11.889 67.473 12.038C66.871 11.397 66.013 11 65.077 11C63.261 11 61.799 12.474 61.799 14.281C61.799 14.541 61.821 14.791 61.875 15.029C59.148 14.896 56.735 13.589 55.114 11.598C54.831 12.089 54.665 12.651 54.665 13.256C54.665 14.392 55.25 15.399 56.122 15.982C55.595 15.972 55.078 15.819 54.64 15.578C54.64 15.588 54.64 15.601 54.64 15.614C54.64 17.208 55.777 18.532 57.268 18.837C57.001 18.91 56.71 18.945 56.408 18.945C56.198 18.945 55.986 18.933 55.787 18.889C56.212 20.188 57.418 21.143 58.852 21.174C57.736 22.047 56.319 22.573 54.785 22.573C54.516 22.573 54.258 22.561 54 22.528C55.453 23.465 57.175 24 59.032 24C65.068 24 68.368 19 68.368 14.666C68.368 14.521 68.363 14.381 68.356 14.242C69.007 13.78 69.554 13.203 70 12.539Z" fill="white"/>
<path opacity="0.1" fill-rule="evenodd" clip-rule="evenodd" d="M1.99944 1.99987H31.9998V31.9998H1.99944V1.99987Z" fill="white"/>
<path d="M20.8043 10.0031L18.8591 10C16.6738 10 15.2616 11.4489 15.2616 13.6915V15.3936H13.3059C13.1369 15.3936 13 15.5306 13 15.6996V18.1656C13 18.3346 13.137 18.4715 13.3059 18.4715H15.2616V24.6941C15.2616 24.8631 15.3985 25 15.5675 25H18.1192C18.2882 25 18.425 24.863 18.425 24.6941V18.4715H20.7118C20.8808 18.4715 21.0176 18.3346 21.0176 18.1656L21.0185 15.6996C21.0185 15.6184 20.9862 15.5407 20.929 15.4833C20.8717 15.4259 20.7937 15.3936 20.7125 15.3936H18.425V13.9507C18.425 13.2572 18.5903 12.9052 19.4936 12.9052L20.804 12.9047C20.9728 12.9047 21.1097 12.7677 21.1097 12.5989V10.309C21.1097 10.1403 20.973 10.0034 20.8043 10.0031Z" fill="white"/>
<path fill-rule="evenodd" clip-rule="evenodd" d="M3.99951 1.99976H1.99951V3.99962H3.99951V1.99976ZM31.9999 1.99976H29.9994V3.99962H31.9999V1.99976ZM29.9994 29.9998H31.9999V31.9997H29.9994V29.9998ZM3.99951 29.9998H1.99951V31.9997H3.99951V29.9998Z" fill="white"/>
<path fill-rule="evenodd" clip-rule="evenodd" d="M48.9993 1.99976H46.9993V3.99962H48.9993V1.99976ZM76.9996 1.99976H74.9996V3.99962H76.9996V1.99976ZM74.9996 29.9998H76.9996V31.9997H74.9996V29.9998ZM48.9993 29.9998H46.9993V31.9997H48.9993V29.9998Z" fill="white"/>
<path fill-rule="evenodd" clip-rule="evenodd" d="M93.9993 1.99976H91.9998V3.99962H93.9993V1.99976ZM122 1.99976H120V3.99962H122V1.99976ZM120 29.9998H122V31.9997H120V29.9998ZM93.9993 29.9998H91.9998V31.9997H93.9993V29.9998Z" fill="white"/>
<path fill-rule="evenodd" clip-rule="evenodd" d="M139 1.99976H137V3.99962H139V1.99976ZM166.999 1.99976H165V3.99962H166.999V1.99976ZM165 29.9998H166.999V31.9997H165V29.9998ZM139 29.9998H137V31.9997H139V29.9998Z" fill="white"/>
</svg>
